<svg width="430" height="430" viewBox="0 0 430 430" fill="none" xmlns="http://www.w3.org/2000/svg">
<path d="M344.351 142.218L287.782 85.6498L321.016 52.4158C322.188 51.2442 324.087 51.2442 325.259 52.4158L377.585 104.742C378.756 105.913 378.756 107.813 377.585 108.984L344.351 142.218Z" fill="#F9C9C0"/>
<path d="M71.7789 351.976C70.4784 355.886 74.1994 359.602 78.1073 358.297L153.432 333.137L96.8631 276.568L71.7789 351.976Z" fill="#EBE6EF"/>
<path d="M153.432 333.138L96.8634 276.569L287.782 85.6504L344.351 142.219L153.432 333.138Z" fill="#FFC738"/>
<path d="M220.607 209.394L287.782 142.219" stroke="#3A3347" stroke-width="7" stroke-miterlimit="14" stroke-linecap="round" stroke-linejoin="round"/>
<path d="M97.3645 351.865L78.1073 358.297C74.1994 359.602 70.4784 355.886 71.7789 351.976L78.1933 332.693L97.3645 351.865Z" fill="#3A3347"/>
<g style="mix-blend-mode:multiply" opacity="0.5">
<path d="M96.8632 276.568L114.295 294L72.2339 356.13C71.5267 354.966 71.2816 353.502 71.7686 352.007C71.772 351.997 71.7754 351.986 71.7789 351.976L96.8632 276.568Z" fill="#EBE6EF"/>
</g>
<g style="mix-blend-mode:multiply" opacity="0.5">
<path d="M305.135 103.003L287.782 85.6504L96.8633 276.569L114.294 294.001L116.863 291.275L305.135 103.003Z" fill="#FFC738"/>
</g>
<g style="mix-blend-mode:multiply" opacity="0.5">
<path d="M321.016 52.4158C322.188 51.2442 324.087 51.2442 325.259 52.4158L340.49 67.6473L305.135 103.003L287.782 85.6498L321.016 52.4158Z" fill="#F9C9C0"/>
</g>
</svg>
